<svg width="16" height="16" viewBox="0 0 16 16" fill="none" xmlns="http://www.w3.org/2000/svg">
<rect width="16" height="16" fill="white"/>
<path d="M9.38329 9.85697L9.02974 10.2105L9.73684 10.9176L10.0904 10.5641L9.38329 9.85697ZM11.8421 8.10526L12.1957 8.45882L12.5492 8.10526L12.1957 7.75171L11.8421 8.10526ZM10.0904 5.64645L9.73684 5.29289L9.02974 6L9.38329 6.35355L10.0904 5.64645ZM9.73684 10.2105L10.0904 10.5641L12.1957 8.45882L11.8421 8.10526L11.4886 7.75171L9.38329 9.85697L9.73684 10.2105ZM11.8421 8.10526L12.1957 7.75171L10.0904 5.64645L9.73684 6L9.38329 6.35355L11.4886 8.45882L11.8421 8.10526ZM11.8421 8.10526V7.60526H5V8.10526V8.60526H11.8421V8.10526Z" fill="#111111"/>
</svg>
